<?xml version="1.0" encoding="UTF-8" standalone="no"?>
<svg
   xmlns:dc="http://purl.org/dc/elements/1.1/"
   xmlns:cc="http://creativecommons.org/ns#"
   xmlns:rdf="http://www.w3.org/1999/02/22-rdf-syntax-ns#"
   xmlns:svg="http://www.w3.org/2000/svg"
   xmlns="http://www.w3.org/2000/svg"
   xmlns:xlink="http://www.w3.org/1999/xlink"
   xmlns:sodipodi="http://sodipodi.sourceforge.net/DTD/sodipodi-0.dtd"
   xmlns:inkscape="http://www.inkscape.org/namespaces/inkscape"
   sodipodi:docname="rogerrogerlogo.svg"
   inkscape:version="1.0 (4035a4f, 2020-05-01)"
   id="svg847"
   version="1.1"
   viewBox="0 0 113.4834 13.22916"
   height="13.22916mm"
   width="113.4834mm">
  <defs
     id="defs841">
    <linearGradient
       inkscape:collect="always"
       id="linearGradient1600">
      <stop
         style="stop-color:#695ee6;stop-opacity:1;"
         offset="0"
         id="stop1604" />
      <stop
         style="stop-color:#ff7a7a;stop-opacity:1"
         offset="1"
         id="stop1606" />
    </linearGradient>
    <linearGradient
       gradientTransform="matrix(0.92473118,0,0,0.48554915,9.2554109,74.612438)"
       gradientUnits="userSpaceOnUse"
       y2="72.004463"
       x2="184.45238"
       y1="104.6994"
       x1="61.421127"
       id="linearGradient1602"
       xlink:href="#linearGradient1600"
       inkscape:collect="always" />
    <clipPath
       id="clipPath1651"
       clipPathUnits="userSpaceOnUse">
      <g
         transform="translate(1.8593102,3.3722823)"
         id="g1685">
        <path
           d="m 89.400067,110.63319 q 0,0.92811 -0.500881,1.67943 -0.500882,0.75132 -1.458449,1.10488 l 2.253966,4.24276 h -3.653487 l -1.797279,-3.69768 h -1.208008 v 3.69768 h -3.255728 v -10.13548 h 6.202088 q 1.090153,0 1.856207,0.42723 0.780785,0.41249 1.163812,1.13435 0.397759,0.70712 0.397759,1.54683 z m -3.314655,0.13259 q 0,-0.39776 -0.265173,-0.66293 -0.265172,-0.26517 -0.648199,-0.26517 h -2.136111 v 1.87094 h 2.136111 q 0.383027,0 0.648199,-0.26518 0.265173,-0.2799 0.265173,-0.67766 z"
           style="font-style:normal;font-variant:normal;font-weight:normal;font-stretch:normal;font-size:14.7318px;line-height:1.25;font-family:'Archivo Black';-inkscape-font-specification:'Archivo Black, ';stroke-width:0.368296"
           id="path1653" />
        <path
           d="m 94.673361,109.70509 q 2.04772,0 3.211532,1.04596 1.178544,1.03122 1.178544,3.02002 0,1.98879 -1.178544,3.03475 -1.163812,1.03122 -3.211532,1.03122 -2.04772,0 -3.211532,-1.03122 -1.163813,-1.03123 -1.163813,-3.03475 0,-2.00353 1.163813,-3.03475 1.163812,-1.03123 3.211532,-1.03123 z m 0,1.98879 q -1.443716,0 -1.443716,1.6647 v 0.83971 q 0,1.64996 1.443716,1.64996 1.458448,0 1.458448,-1.64996 v -0.83971 q 0,-1.6647 -1.458448,-1.6647 z"
           style="font-style:normal;font-variant:normal;font-weight:normal;font-stretch:normal;font-size:14.7318px;line-height:1.25;font-family:'Archivo Black';-inkscape-font-specification:'Archivo Black, ';stroke-width:0.368296"
           id="path1655" />
        <path
           d="m 109.24265,108.42342 q 0,0.89864 -0.45669,1.38479 -0.44195,0.48615 -1.34059,0.72186 0.42722,0.3241 0.66293,0.76606 0.25044,0.42722 0.25044,0.91337 0,1.23747 -0.94283,1.87094 -0.92811,0.63346 -2.32763,0.63346 h -1.11961 q -0.92811,0 -0.92811,0.42723 0,0.20624 0.20625,0.33883 0.20624,0.11785 0.72186,0.11785 h 2.65172 q 1.2964,0 1.95933,0.67766 0.66293,0.67767 0.66293,1.81202 0,0.83971 -0.44195,1.44371 -0.44196,0.60401 -1.19328,0.91337 -0.75132,0.30937 -1.63523,0.30937 h -4.33115 q -0.53034,0 -0.98703,-0.25044 -0.44195,-0.25044 -0.707125,-0.69239 -0.265173,-0.42723 -0.265173,-0.95757 0,-0.57454 0.353568,-1.04596 0.35356,-0.45668 0.8839,-0.69239 -0.35356,-0.25044 -0.5598,-0.60401 -0.20625,-0.35356 -0.20625,-0.76605 0,-0.57454 0.42722,-1.03123 0.42722,-0.47141 1.06069,-0.63346 -0.57454,-0.3683 -0.91337,-0.83972 -0.33883,-0.48615 -0.33883,-1.01649 0,-1.35533 1.09015,-1.92987 1.10489,-0.58927 2.9169,-0.58927 0.79552,0 1.28166,0.0884 0.72186,-0.45668 0.92811,-0.82498 0.22098,-0.38303 0.22098,-0.54508 z m -4.87623,2.81378 q -0.48614,0 -0.79551,0.25044 -0.30937,0.25044 -0.30937,0.72186 0,0.48615 0.2799,0.73659 0.29464,0.23571 0.82498,0.23571 0.53035,0 0.82499,-0.23571 0.30936,-0.25044 0.30936,-0.73659 0,-0.48615 -0.30936,-0.72186 -0.29464,-0.25044 -0.82499,-0.25044 z m -1.13434,6.42306 q -0.33884,0 -0.55981,0.17678 -0.20625,0.19152 -0.20625,0.53035 0,0.33883 0.22098,0.54508 0.22098,0.20624 0.54508,0.20624 h 2.29816 q 0.3241,0 0.54507,-0.20624 0.23571,-0.19152 0.23571,-0.53035 0,-0.33883 -0.22097,-0.53034 -0.22098,-0.19152 -0.55981,-0.19152 z"
           style="font-style:normal;font-variant:normal;font-weight:normal;font-stretch:normal;font-size:14.7318px;line-height:1.25;font-family:'Archivo Black';-inkscape-font-specification:'Archivo Black, ';stroke-width:0.368296"
           id="path1657" />
        <path
           d="m 114.35412,109.70509 q 2.13612,0 3.25573,1.00176 1.13435,1.00177 1.13435,3.06422 v 0.50088 h -5.83379 q 0,0.83971 0.36829,1.26693 0.38303,0.42723 1.19328,0.42723 0.73659,0 1.07542,-0.30937 0.35356,-0.30937 0.35356,-0.82498 h 2.84324 q 0,1.41425 -1.07542,2.20977 -1.07542,0.79551 -3.13787,0.79551 -2.16558,0 -3.35885,-1.00176 -1.19328,-1.01649 -1.19328,-3.06421 0,-2.00353 1.16381,-3.03475 1.16381,-1.03123 3.21153,-1.03123 z m 0.11786,1.87094 q -1.38479,0 -1.54684,1.31113 h 2.85797 q 0,-0.604 -0.35356,-0.95757 -0.33884,-0.35356 -0.95757,-0.35356 z"
           style="font-style:normal;font-variant:normal;font-weight:normal;font-stretch:normal;font-size:14.7318px;line-height:1.25;font-family:'Archivo Black';-inkscape-font-specification:'Archivo Black, ';stroke-width:0.368296"
           id="path1659" />
        <path
           d="m 124.90163,109.69036 q 0.33884,0 0.60401,0.0884 0.26517,0.0737 0.26517,0.0884 v 2.46021 h -0.94283 q -0.91338,0 -1.32587,0.47142 -0.39776,0.47142 -0.39776,1.39952 v 3.46197 h -2.93162 v -7.77839 h 2.40128 l 0.19151,1.17855 q 0.26518,-0.67767 0.83972,-1.0165 0.57454,-0.35356 1.29639,-0.35356 z"
           style="font-style:normal;font-variant:normal;font-weight:normal;font-stretch:normal;font-size:14.7318px;line-height:1.25;font-family:'Archivo Black';-inkscape-font-specification:'Archivo Black, ';stroke-width:0.368296"
           id="path1661" />
        <path
           d="m 141.45051,110.63319 q 0,0.92811 -0.50088,1.67943 -0.50088,0.75132 -1.45845,1.10488 l 2.25396,4.24276 h -3.65348 l -1.79728,-3.69768 h -1.20801 v 3.69768 h -3.25573 v -10.13548 h 6.20209 q 1.09015,0 1.85621,0.42723 0.78078,0.41249 1.16381,1.13435 0.39776,0.70712 0.39776,1.54683 z m -3.31466,0.13259 q 0,-0.39776 -0.26517,-0.66293 -0.26517,-0.26517 -0.6482,-0.26517 h -2.13611 v 1.87094 h 2.13611 q 0.38303,0 0.6482,-0.26518 0.26517,-0.2799 0.26517,-0.67766 z"
           style="font-style:normal;font-variant:normal;font-weight:normal;font-stretch:normal;font-size:14.7318px;line-height:1.25;font-family:'Archivo Black';-inkscape-font-specification:'Archivo Black, ';stroke-width:0.368296"
           id="path1663" />
        <path
           d="m 146.7238,109.70509 q 2.04772,0 3.21153,1.04596 1.17855,1.03122 1.17855,3.02002 0,1.98879 -1.17855,3.03475 -1.16381,1.03122 -3.21153,1.03122 -2.04772,0 -3.21153,-1.03122 -1.16381,-1.03123 -1.16381,-3.03475 0,-2.00353 1.16381,-3.03475 1.16381,-1.03123 3.21153,-1.03123 z m 0,1.98879 q -1.44372,0 -1.44372,1.6647 v 0.83971 q 0,1.64996 1.44372,1.64996 1.45845,0 1.45845,-1.64996 v -0.83971 q 0,-1.6647 -1.45845,-1.6647 z"
           style="font-style:normal;font-variant:normal;font-weight:normal;font-stretch:normal;font-size:14.7318px;line-height:1.25;font-family:'Archivo Black';-inkscape-font-specification:'Archivo Black, ';stroke-width:0.368296"
           id="path1665" />
        <path
           d="m 161.29309,108.42342 q 0,0.89864 -0.45669,1.38479 -0.44195,0.48615 -1.34059,0.72186 0.42722,0.3241 0.66293,0.76606 0.25044,0.42722 0.25044,0.91337 0,1.23747 -0.94283,1.87094 -0.92811,0.63346 -2.32763,0.63346 h -1.11961 q -0.92811,0 -0.92811,0.42723 0,0.20624 0.20625,0.33883 0.20624,0.11785 0.72186,0.11785 h 2.65172 q 1.2964,0 1.95933,0.67766 0.66293,0.67767 0.66293,1.81202 0,0.83971 -0.44195,1.44371 -0.44196,0.60401 -1.19328,0.91337 -0.75132,0.30937 -1.63523,0.30937 h -4.33115 q -0.53034,0 -0.98703,-0.25044 -0.44195,-0.25044 -0.70713,-0.69239 -0.26517,-0.42723 -0.26517,-0.95757 0,-0.57454 0.35357,-1.04596 0.35356,-0.45668 0.8839,-0.69239 -0.35356,-0.25044 -0.55981,-0.60401 -0.20624,-0.35356 -0.20624,-0.76605 0,-0.57454 0.42722,-1.03123 0.42722,-0.47141 1.06069,-0.63346 -0.57454,-0.3683 -0.91337,-0.83972 -0.33883,-0.48615 -0.33883,-1.01649 0,-1.35533 1.09015,-1.92987 1.10489,-0.58927 2.9169,-0.58927 0.79552,0 1.28166,0.0884 0.72186,-0.45668 0.92811,-0.82498 0.22098,-0.38303 0.22098,-0.54508 z m -4.87623,2.81378 q -0.48614,0 -0.79551,0.25044 -0.30937,0.25044 -0.30937,0.72186 0,0.48615 0.2799,0.73659 0.29464,0.23571 0.82498,0.23571 0.53035,0 0.82499,-0.23571 0.30936,-0.25044 0.30936,-0.73659 0,-0.48615 -0.30936,-0.72186 -0.29464,-0.25044 -0.82499,-0.25044 z m -1.13434,6.42306 q -0.33884,0 -0.55981,0.17678 -0.20625,0.19152 -0.20625,0.53035 0,0.33883 0.22098,0.54508 0.22098,0.20624 0.54508,0.20624 h 2.29816 q 0.3241,0 0.54507,-0.20624 0.23571,-0.19152 0.23571,-0.53035 0,-0.33883 -0.22097,-0.53034 -0.22098,-0.19152 -0.55981,-0.19152 z"
           style="font-style:normal;font-variant:normal;font-weight:normal;font-stretch:normal;font-size:14.7318px;line-height:1.25;font-family:'Archivo Black';-inkscape-font-specification:'Archivo Black, ';stroke-width:0.368296"
           id="path1667" />
        <path
           d="m 166.40457,109.70509 q 2.13611,0 3.25573,1.00176 1.13434,1.00177 1.13434,3.06422 v 0.50088 h -5.83379 q 0,0.83971 0.3683,1.26693 0.38302,0.42723 1.19327,0.42723 0.73659,0 1.07542,-0.30937 0.35357,-0.30937 0.35357,-0.82498 h 2.84323 q 0,1.41425 -1.07542,2.20977 -1.07542,0.79551 -3.13787,0.79551 -2.16558,0 -3.35885,-1.00176 -1.19328,-1.01649 -1.19328,-3.06421 0,-2.00353 1.16382,-3.03475 1.16381,-1.03123 3.21153,-1.03123 z m 0.11785,1.87094 q -1.38479,0 -1.54684,1.31113 h 2.85797 q 0,-0.604 -0.35356,-0.95757 -0.33883,-0.35356 -0.95757,-0.35356 z"
           style="font-style:normal;font-variant:normal;font-weight:normal;font-stretch:normal;font-size:14.7318px;line-height:1.25;font-family:'Archivo Black';-inkscape-font-specification:'Archivo Black, ';stroke-width:0.368296"
           id="path1669" />
        <path
           d="m 176.95207,109.69036 q 0.33883,0 0.60401,0.0884 0.26517,0.0737 0.26517,0.0884 v 2.46021 h -0.94284 q -0.91337,0 -1.32586,0.47142 -0.39776,0.47142 -0.39776,1.39952 v 3.46197 h -2.93163 v -7.77839 h 2.40129 l 0.19151,1.17855 q 0.26517,-0.67767 0.83971,-1.0165 0.57454,-0.35356 1.2964,-0.35356 z"
           style="font-style:normal;font-variant:normal;font-weight:normal;font-stretch:normal;font-size:14.7318px;line-height:1.25;font-family:'Archivo Black';-inkscape-font-specification:'Archivo Black, ';stroke-width:0.368296"
           id="path1671" />
        <g
           style="fill:#000000"
           transform="matrix(0.56307743,0,0,0.56307743,63.211695,105.83555)"
           id="g1683">
          <g
             id="g1681">
            <path
               d="M 21,12.22 C 21,6.73 16.74,3 12,3 7.31,3 3,6.65 3,12.28 2.4,12.62 2,13.26 2,14 v 2 c 0,1.1 0.9,2 2,2 h 1 v -6.1 c 0,-3.87 3.13,-7 7,-7 3.87,0 7,3.13 7,7 V 19 h -8 v 2 h 8 c 1.1,0 2,-0.9 2,-2 v -1.22 c 0.59,-0.31 1,-0.92 1,-1.64 v -2.3 c 0,-0.7 -0.41,-1.31 -1,-1.62 z"
               id="path1673" />
            <circle
               cx="9"
               cy="13"
               r="1"
               id="circle1675" />
            <circle
               cx="15"
               cy="13"
               r="1"
               id="circle1677" />
            <path
               d="M 18,11.03 C 17.52,8.18 15.04,6 12.05,6 9.02,6 5.76,8.51 6.02,12.45 c 2.47,-1.01 4.33,-3.21 4.86,-5.89 1.31,2.63 4,4.44 7.12,4.47 z"
               id="path1679" />
          </g>
        </g>
      </g>
    </clipPath>
  </defs>
  <sodipodi:namedview
     fit-margin-bottom="0"
     fit-margin-right="0"
     fit-margin-left="0"
     fit-margin-top="0"
     inkscape:window-maximized="0"
     inkscape:window-y="25"
     inkscape:window-x="113"
     inkscape:window-height="762"
     inkscape:window-width="1252"
     showgrid="false"
     inkscape:document-rotation="0"
     inkscape:current-layer="layer1"
     inkscape:document-units="mm"
     inkscape:cy="20.861497"
     inkscape:cx="198.70808"
     inkscape:zoom="0.49497475"
     inkscape:pageshadow="2"
     inkscape:pageopacity="0.0"
     borderopacity="1.0"
     bordercolor="#666666"
     pagecolor="#ffffff"
     id="base" />
  <metadata
     id="metadata844">
    <rdf:RDF>
      <cc:Work
         rdf:about="">
        <dc:format>image/svg+xml</dc:format>
        <dc:type
           rdf:resource="http://purl.org/dc/dcmitype/StillImage" />
        <dc:title></dc:title>
      </cc:Work>
    </rdf:RDF>
  </metadata>
  <g
     transform="translate(-66.19716,-110.89706)"
     id="layer1"
     inkscape:groupmode="layer"
     inkscape:label="Layer 1">
    <rect
       clip-path="url(#clipPath1651)"
       y="109.57414"
       x="66.053436"
       height="15.875"
       width="113.77084"
       id="rect1581"
       style="fill:url(#linearGradient1602);fill-opacity:1;stroke-width:0.354471" />
    <g
       style="font-size:14.7318px;line-height:1.25;font-family:'Noto Emoji';-inkscape-font-specification:'Noto Emoji';stroke-width:0.368296"
       id="text1412"
       aria-label="Roger Roger" />
  </g>
</svg>
